<svg width="24" height="24" viewBox="0 0 24 24" fill="none" xmlns="http://www.w3.org/2000/svg">
<path d="M13.3359 3.25C13.1526 3.5688 13.037 3.92805 13.0078 4.30664L13 4.5L13.0078 4.69336C13.0093 4.71235 13.0128 4.73111 13.0146 4.75H7.24023C7.00774 4.75015 6.77962 4.81497 6.58203 4.9375C6.3846 5.05996 6.22554 5.23535 6.12207 5.44336L6.12109 5.44629L6.12012 5.44531L2.75 12.1777V12.25H8C8.25076 12.25 8.48492 12.3753 8.62402 12.584L10.4014 15.25H13.5986L15.376 12.584L15.4326 12.5098C15.5741 12.346 15.7806 12.25 16 12.25H21.25V12.1777L19.9336 9.54883C20.3366 9.26838 20.6584 8.87097 20.8428 8.3916L20.9248 8.17676L22.6709 11.6641C22.7231 11.7683 22.75 11.8834 22.75 12V18C22.75 18.7293 22.4601 19.4286 21.9443 19.9443C21.4286 20.4601 20.7293 20.75 20 20.75H4C3.27065 20.75 2.57139 20.4601 2.05566 19.9443C1.53994 19.4286 1.25 18.7293 1.25 18V12C1.25 11.8834 1.2769 11.7683 1.3291 11.6641L4.7793 4.77441C5.00699 4.31706 5.35778 3.93235 5.79199 3.66309C6.22668 3.39354 6.72778 3.25034 7.23926 3.25H13.3359ZM15.7559 3.8584L16.6943 3.49805L15.3271 4.02441L15.7559 3.8584L15.9893 3.25H15.9902L15.7559 3.8584ZM16.9854 3.34277C16.9703 3.35318 16.955 3.36322 16.9395 3.37305C16.955 3.36323 16.9703 3.35318 16.9854 3.34277ZM17.082 3.26953C17.0711 3.27854 17.06 3.28722 17.0488 3.2959C17.06 3.28722 17.0711 3.27854 17.082 3.26953Z" fill="#191B1F"/>
<path d="M19.5016 2.69425L18.9756 1.32667C18.9 1.12986 18.7108 1 18.5 1C18.2892 1 18.1 1.12986 18.0244 1.32667L17.4984 2.69425C17.3561 3.06398 17.064 3.35613 16.6943 3.49837L15.3267 4.02435C15.1299 4.10002 15 4.28916 15 4.5C15 4.71084 15.1299 4.89998 15.3267 4.97565L16.6943 5.50163C17.064 5.64387 17.3561 5.93605 17.4984 6.30572L18.0244 7.67331C18.1 7.87015 18.2892 8 18.5 8C18.7108 8 18.9 7.87015 18.9756 7.67331L19.5016 6.30572C19.6439 5.93605 19.9361 5.64387 20.3057 5.50163L21.6733 4.97565C21.8702 4.89998 22 4.71084 22 4.5C22 4.28916 21.8702 4.10002 21.6733 4.02435L20.3057 3.49837C19.9361 3.35613 19.6439 3.06398 19.5016 2.69425Z" fill="#191B1F"/>
</svg>
