<svg width="32" height="32" viewBox="0 0 32 32" fill="none" xmlns="http://www.w3.org/2000/svg">
  <!-- Background rounded square -->
  <rect width="32" height="32" rx="8" fill="#3B82F6"/>
  
  <!-- White letter "C" with subtle 3D effect -->
  <path 
    d="M22 12C22 10.8954 21.1046 10 20 10H16C14.8954 10 14 10.8954 14 12V20C14 21.1046 14.8954 22 16 22H20C21.1046 22 22 21.1046 22 20V12Z" 
    fill="white"
    fill-opacity="0.95"
  />
  
  <!-- Inner cutout for "C" shape -->
  <path 
    d="M20 12H16V20H20C20.5523 20 21 19.5523 21 19V13C21 12.4477 20.5523 12 20 12Z" 
    fill="#3B82F6"
  />
  
  <!-- Subtle highlight effect -->
  <path 
    d="M20 12H16V20H20C20.5523 20 21 19.5523 21 19V13C21 12.4477 20.5523 12 20 12Z" 
    fill="white"
    fill-opacity="0.3"
  />
</svg>
