<svg width="24" height="24" viewBox="0 0 24 24" fill="none" xmlns="http://www.w3.org/2000/svg">
<path d="M16.9521 3.25684C17.3966 3.28814 17.8277 3.42727 18.208 3.66309C18.6422 3.93235 18.993 4.31706 19.2207 4.77441L22.6709 11.6641C22.6755 11.6732 22.6784 11.6831 22.6826 11.6924C22.687 11.7021 22.6913 11.7118 22.6953 11.7217C22.7306 11.8102 22.75 11.9043 22.75 12V18C22.75 18.7293 22.4601 19.4286 21.9443 19.9443C21.4286 20.4601 20.7293 20.75 20 20.75H4C3.27065 20.75 2.57139 20.4601 2.05566 19.9443C1.53994 19.4286 1.25 18.7293 1.25 18V12C1.25 11.9045 1.26846 11.8101 1.30371 11.7217C1.30767 11.7118 1.31204 11.7021 1.31641 11.6924C1.32064 11.683 1.32446 11.6733 1.3291 11.6641L4.7793 4.77441C5.00699 4.31706 5.35778 3.93235 5.79199 3.66309C6.22668 3.39354 6.72778 3.25034 7.23926 3.25H16.7607L16.9521 3.25684ZM7.24023 4.75C7.00774 4.75015 6.77962 4.81497 6.58203 4.9375C6.3846 5.05996 6.22554 5.23535 6.12207 5.44336L6.12109 5.44629L6.12012 5.44531L3.21484 12.25H8C8.25076 12.25 8.48492 12.3753 8.62402 12.584L10.4014 15.25H13.5986L15.376 12.584L15.4326 12.5098C15.5741 12.346 15.7806 12.25 16 12.25H20.7852L17.8789 5.44531L17.8779 5.44336C17.7745 5.23535 17.6154 5.05996 17.418 4.9375C17.2697 4.84555 17.1042 4.78578 16.9326 4.76172L16.7598 4.75H7.24023Z" fill="#191B1F"/>
</svg>
