<svg width="24" height="24" viewBox="0 0 24 24" fill="none" xmlns="http://www.w3.org/2000/svg">
<path fill-rule="evenodd" clip-rule="evenodd" d="M16.5416 4.49089C16.803 4.10885 17.3275 4.00897 17.7133 4.26779C19.5973 5.53185 21.051 7.45315 21.6875 9.80583C21.8496 10.4048 21.9519 11.0066 21.9976 11.6045C22.0327 12.0646 21.6846 12.4659 21.22 12.5007C20.7553 12.5355 20.3502 12.1908 20.315 11.7306C20.2772 11.2359 20.1925 10.7367 20.0576 10.2383C19.5297 8.28704 18.3267 6.69786 16.7669 5.65127C16.3811 5.39244 16.2803 4.87292 16.5416 4.49089ZM7.80092 4.58382C8.0718 4.95929 7.98404 5.48114 7.60491 5.7494C5.62243 7.15216 4.37222 9.40108 4.23975 11.8364C4.21468 12.2972 3.81718 12.6506 3.35191 12.6257C2.88664 12.6009 2.52978 12.2073 2.55484 11.7465C2.71483 8.80535 4.22302 6.08857 6.624 4.3897C7.00312 4.12144 7.53005 4.20835 7.80092 4.58382ZM16.929 19.9225C17.1319 20.3379 16.9564 20.8375 16.537 21.0385C15.9944 21.2985 15.42 21.5114 14.8181 21.6711C12.5916 22.262 10.3354 22.0334 8.3763 21.1723C7.95042 20.9851 7.75841 20.4914 7.94744 20.0696C8.13647 19.6479 8.63495 19.4577 9.06083 19.6449C10.6809 20.357 12.5419 20.5451 14.3814 20.057C14.8803 19.9246 15.3549 19.7486 15.802 19.5343C16.2215 19.3333 16.726 19.5071 16.929 19.9225Z" fill="#191B1F"/>
<path fill-rule="evenodd" clip-rule="evenodd" d="M12.784 3.08449C12.7036 2.78733 12.3952 2.61099 12.0952 2.69061C11.7951 2.77023 11.6171 3.07567 11.6975 3.37283C11.7778 3.66998 12.0863 3.84633 12.3863 3.7667C12.6864 3.68708 12.8644 3.38164 12.784 3.08449ZM11.6584 1.07647C12.8586 0.757984 14.0923 1.46336 14.4139 2.65198C14.7355 3.8406 14.0232 5.06235 12.823 5.38084C11.6228 5.69933 10.3892 4.99395 10.0676 3.80533C9.74601 2.61672 10.4583 1.39496 11.6584 1.07647Z" fill="#191B1F"/>
<path fill-rule="evenodd" clip-rule="evenodd" d="M20.2835 16.453C20.2031 16.1559 19.8947 15.9795 19.5947 16.0591C19.2946 16.1388 19.1166 16.4442 19.197 16.7414C19.2773 17.0385 19.5858 17.2149 19.8858 17.1352C20.1859 17.0556 20.3639 16.7502 20.2835 16.453ZM19.1579 14.445C20.3581 14.1265 21.5918 14.8319 21.9134 16.0205C22.235 17.2091 21.5227 18.4309 20.3225 18.7494C19.1223 19.0679 17.8887 18.3625 17.5671 17.1739C17.2455 15.9852 17.9578 14.7635 19.1579 14.445Z" fill="#191B1F"/>
<path fill-rule="evenodd" clip-rule="evenodd" d="M4.79364 16.7533C4.71325 16.4561 4.40483 16.2798 4.10479 16.3594C3.80474 16.439 3.62668 16.7445 3.70707 17.0416C3.78747 17.3388 4.09588 17.5151 4.39593 17.4355C4.69598 17.3559 4.87404 17.0504 4.79364 16.7533ZM3.66807 14.7453C4.86826 14.4268 6.10191 15.1322 6.4235 16.3208C6.74509 17.5094 6.03284 18.7312 4.83265 19.0496C3.63246 19.3681 2.39881 18.6628 2.07722 17.4741C1.75563 16.2855 2.46788 15.0638 3.66807 14.7453Z" fill="#191B1F"/>
<path fill-rule="evenodd" clip-rule="evenodd" d="M12.1239 7.07497C12.5899 7.07497 12.9676 7.44905 12.9676 7.91051V8.42916C13.711 8.58767 14.3768 8.95571 14.8142 9.50031C15.1043 9.86145 15.0438 10.3871 14.6792 10.6744C14.3145 10.9616 13.7838 10.9017 13.4937 10.5406C13.2815 10.2763 12.7923 10.012 12.1239 10.012H11.8635C11.4472 10.012 11.1046 10.1347 10.8867 10.2917C10.668 10.4492 10.6241 10.5957 10.6241 10.6769V10.7413C10.6241 10.8643 10.7387 11.1644 11.2697 11.3557L13.5548 12.1786C13.5548 12.1786 13.5548 12.1786 13.5548 12.1786C14.496 12.5176 15.3111 13.3011 15.3111 14.3635C15.3111 15.1287 14.8788 15.7485 14.3274 16.1457C13.9417 16.4235 13.4735 16.6148 12.9676 16.7049V17.1943C12.9676 17.6557 12.5899 18.0298 12.1239 18.0298C11.658 18.0298 11.2803 17.6557 11.2803 17.1943V16.6756C10.5369 16.5171 9.87107 16.149 9.43364 15.6044C9.14357 15.2433 9.20404 14.7177 9.56869 14.4304C9.93333 14.1431 10.4641 14.203 10.7542 14.5641C10.9664 14.8284 11.4556 15.0927 12.1239 15.0927H12.2949C12.7359 15.0927 13.1009 14.9628 13.3349 14.7942C13.5698 14.6251 13.6238 14.4624 13.6238 14.3635C13.6238 14.2404 13.5092 13.9403 12.9782 13.7491L10.693 12.9261C10.693 12.9261 10.693 12.9261 10.693 12.9261C9.75196 12.5872 8.9367 11.8037 8.9367 10.7413V10.6769C8.9367 9.92938 9.35903 9.32573 9.89429 8.94021C10.2859 8.65812 10.7645 8.46835 11.2803 8.38657V7.91051C11.2803 7.44905 11.658 7.07497 12.1239 7.07497Z" fill="#191B1F"/>
</svg>
