<svg width="24" height="24" viewBox="0 0 24 24" fill="none" xmlns="http://www.w3.org/2000/svg">
<path d="M3.00003 14L3 19C2.99999 20.1046 3.89543 21 5 21H19C20.1046 21 21 20.1046 21 19V14H16.5836C15.8122 15.7655 14.0512 17 12 17C9.94878 17 8.18784 15.7655 7.41638 14H3.00003Z" fill="#191B1F"/>
<path d="M19.5016 2.69425L18.9756 1.32667C18.9 1.12986 18.7108 1 18.5 1C18.2892 1 18.1 1.12986 18.0244 1.32667L17.4984 2.69425C17.3561 3.06398 17.064 3.35613 16.6943 3.49837L15.3267 4.02435C15.1299 4.10002 15 4.28916 15 4.5C15 4.71084 15.1299 4.89998 15.3267 4.97565L16.6943 5.50163C17.064 5.64387 17.3561 5.93605 17.4984 6.30572L18.0244 7.67331C18.1 7.87015 18.2892 8 18.5 8C18.7108 8 18.9 7.87015 18.9756 7.67331L19.5016 6.30572C19.6439 5.93605 19.9361 5.64387 20.3057 5.50163L21.6733 4.97565C21.8702 4.89998 22 4.71084 22 4.5C22 4.28916 21.8702 4.10002 21.6733 4.02435L20.3057 3.49837C19.9361 3.35613 19.6439 3.06398 19.5016 2.69425Z" fill="#191B1F"/>
<path d="M13.4971 3C13.2182 3.37436 13.0448 3.82585 13.0078 4.30664L13 4.5L13.0078 4.69336C13.0816 5.65231 13.6996 6.49321 14.6084 6.84277L15.7266 7.27246L16.1572 8.3916C16.5301 9.3611 17.4621 10 18.5 10C19.5379 10 20.4699 9.3611 20.8428 8.3916L21 7.98145V12H15.874C15.4177 12 15.019 12.3092 14.9053 12.751C14.5721 14.045 13.3964 15 12 15C10.6036 15 9.42793 14.045 9.09473 12.751C8.981 12.3092 8.58226 12 8.12598 12H3V5C3.00001 3.89543 3.89544 3.00001 5 3H13.4971ZM19 3C19.2883 3 19.562 3.06205 19.8096 3.17188C19.9483 3.31323 20.1167 3.42532 20.3057 3.49805L20.3262 3.50586C20.7386 3.87222 21 4.40493 21 5V5.23438L20.3057 5.50195C19.9361 5.6442 19.6442 5.93612 19.502 6.30566L18.9756 7.67285C18.8999 7.86969 18.7108 8 18.5 8L18.4219 7.99414C18.2435 7.96653 18.0906 7.84501 18.0244 7.67285L17.498 6.30566C17.3558 5.93613 17.0639 5.6442 16.6943 5.50195L15.7559 5.14062L15.7549 5.13965L15.3271 4.97559C15.1303 4.89992 15 4.71084 15 4.5C15 4.31555 15.0992 4.14741 15.2559 4.05762L15.3271 4.02441L15.7559 3.8584L16.0439 3.1084L16.0449 3.10938L15.7559 3.8584L16.6943 3.49805C16.9542 3.39804 17.174 3.22294 17.332 3H19Z" fill="#191B1F"/>
</svg>
