<svg width="24" height="24" viewBox="0 0 24 24" fill="none" xmlns="http://www.w3.org/2000/svg">
<path d="M14 4.5H4.75C4.61195 4.50003 4.5 4.61196 4.5 4.75V12H8.07031L8.20215 12.0117C8.50385 12.0655 8.74786 12.3005 8.80664 12.6104C9.09182 14.1135 10.4142 15.25 12 15.25C13.5858 15.25 14.9081 14.1135 15.1934 12.6104L15.2295 12.4824C15.3386 12.1963 15.6145 12 15.9297 12H19.5V9H21V19.25C21 20.2165 20.2165 21 19.25 21H4.75C3.78352 21 3 20.2165 3 19.25V4.75C3 3.78351 3.78354 3.00003 4.75 3H14V4.5ZM4.5 19.25C4.5 19.3881 4.61192 19.5 4.75 19.5H19.25C19.3881 19.5 19.5 19.3881 19.5 19.25V13.5H16.5078C15.8797 15.3882 14.0997 16.75 12 16.75C9.90035 16.75 8.12032 15.3882 7.49219 13.5H4.5V19.25Z" fill="#545861"/>
<path d="M19.5016 2.69425L18.9756 1.32667C18.9 1.12986 18.7108 1 18.5 1C18.2892 1 18.1 1.12986 18.0244 1.32667L17.4984 2.69425C17.3561 3.06398 17.064 3.35613 16.6943 3.49837L15.3267 4.02435C15.1299 4.10002 15 4.28916 15 4.5C15 4.71084 15.1299 4.89998 15.3267 4.97565L16.6943 5.50163C17.064 5.64387 17.3561 5.93605 17.4984 6.30572L18.0244 7.67331C18.1 7.87015 18.2892 8 18.5 8C18.7108 8 18.9 7.87015 18.9756 7.67331L19.5016 6.30572C19.6439 5.93605 19.9361 5.64387 20.3057 5.50163L21.6733 4.97565C21.8702 4.89998 22 4.71084 22 4.5C22 4.28916 21.8702 4.10002 21.6733 4.02435L20.3057 3.49837C19.9361 3.35613 19.6439 3.06398 19.5016 2.69425Z" fill="#545861"/>
</svg>
