<svg width="24" height="24" viewBox="0 0 24 24" fill="none" xmlns="http://www.w3.org/2000/svg">
<path d="M21.25 12C21.25 17.1086 17.1086 21.25 12 21.25C6.89137 21.25 2.75 17.1086 2.75 12C2.75 6.89137 6.89137 2.75 12 2.75C17.1086 2.75 21.25 6.89137 21.25 12Z" stroke="#545861" stroke-width="1.5" stroke-linejoin="round"/>
<path d="M14.6557 8.73033L10.5512 9.84975C10.2096 9.94291 9.94267 10.2098 9.84951 10.5514L8.73009 14.6559C8.62829 15.0292 8.97078 15.3717 9.34403 15.2699L13.4486 14.1505C13.7902 14.0573 14.0571 13.7904 14.1503 13.4488L15.2697 9.34427C15.3715 8.97102 15.029 8.62853 14.6557 8.73033Z" stroke="#545861" stroke-width="1.5" stroke-linejoin="round"/>
</svg>
