<svg width="24" height="24" viewBox="0 0 24 24" fill="none" xmlns="http://www.w3.org/2000/svg">
<path d="M11.5097 3.27576C11.8142 3.10453 12.1858 3.10453 12.4903 3.27576L19.4903 7.21322C19.8052 7.39033 20 7.72352 20 8.08479V15.9151C20 16.2764 19.8052 16.6096 19.4903 16.7867L12.4902 20.7241C12.1858 20.8953 11.8142 20.8953 11.5097 20.7241L4.50977 16.787C4.19487 16.6098 4 16.2766 4 15.9154V8.08477C4 7.72349 4.19486 7.39031 4.50975 7.21319L11.5097 3.27576Z" stroke="#545861" stroke-width="1.5" stroke-linecap="square" stroke-linejoin="round"/>
<path d="M15 12C15 13.6568 13.6569 15 12 15C10.3432 15 9 13.6568 9 12C9 10.3431 10.3432 9 12 9C13.6569 9 15 10.3431 15 12Z" stroke="#545861" stroke-width="1.5" stroke-linecap="square" stroke-linejoin="round"/>
</svg>
