<svg width="24" height="24" viewBox="0 0 24 24" fill="none" xmlns="http://www.w3.org/2000/svg">
<path d="M21 22.25L16.2517 17.4396M16.2517 17.4396C14.7409 18.9702 12.6538 19.9168 10.3485 19.9168C5.73775 19.9168 2 16.1301 2 11.4589C2 7.49304 4.69425 4.16468 8.32954 3.25M16.2517 17.4396C17.3077 16.3697 18.0822 15.0147 18.4527 13.4982" stroke="#191B1F" stroke-width="1.5" stroke-linecap="round" stroke-linejoin="round"/>
<path d="M17.5506 3.73148L16.6795 1.46667C16.5714 1.18552 16.3012 1 16 1C15.6988 1 15.4286 1.18552 15.3205 1.46667L14.4494 3.73148C14.3225 4.06159 14.0616 4.32246 13.7315 4.44944L11.4666 5.32051C11.1855 5.42865 11 5.69876 11 6C11 6.30124 11.1855 6.57135 11.4666 6.67949L13.7315 7.55056C14.0616 7.67754 14.3225 7.93841 14.4494 8.26852L15.3205 10.5333C15.4286 10.8145 15.6988 11 16 11C16.3012 11 16.5714 10.8145 16.6795 10.5333L17.5506 8.26852C17.6775 7.93841 17.9384 7.67754 18.2685 7.55056L20.5334 6.67949C20.8145 6.57135 21 6.30124 21 6C21 5.69876 20.8145 5.42865 20.5334 5.32051L18.2685 4.44944C17.9384 4.32246 17.6775 4.06159 17.5506 3.73148Z" fill="#191B1F"/>
</svg>
