<svg width="24" height="24" viewBox="0 0 24 24" fill="none" xmlns="http://www.w3.org/2000/svg">
<path fill-rule="evenodd" clip-rule="evenodd" d="M19 3C20.1046 3 21 3.89543 21 5V19C21 20.1046 20.1046 21 19 21H5C3.89543 21 3 20.1046 3 19V5C3 3.89543 3.89543 3 5 3H19ZM12 7C11.6988 7 11.4284 7.18564 11.3203 7.4668L10.5693 9.41992C10.3662 9.94811 9.94811 10.3662 9.41992 10.5693L7.4668 11.3203C7.18564 11.4284 7 11.6988 7 12C7 12.3012 7.18564 12.5716 7.4668 12.6797L9.41992 13.4307C9.94811 13.6338 10.3662 14.0519 10.5693 14.5801L11.3203 16.5332C11.4284 16.8144 11.6988 17 12 17C12.3012 17 12.5716 16.8144 12.6797 16.5332L13.4307 14.5801C13.6338 14.0519 14.0519 13.6338 14.5801 13.4307L16.5332 12.6797C16.8144 12.5716 17 12.3012 17 12C17 11.6988 16.8144 11.4284 16.5332 11.3203L14.5801 10.5693C14.0519 10.3662 13.6338 9.94811 13.4307 9.41992L12.6797 7.4668C12.5716 7.18564 12.3012 7 12 7Z" fill="#191B1F"/>
</svg>
