<svg width="24" height="24" viewBox="0 0 24 24" fill="none" xmlns="http://www.w3.org/2000/svg">
<path d="M12.7305 9.68945C13.0099 10.4157 13.5845 10.9902 14.3105 11.2695L16.21 12L14.3105 12.7305C13.5845 13.0099 13.0099 13.5845 12.7305 14.3105L12 16.21L11.2695 14.3105C10.9902 13.5845 10.4157 13.0099 9.68945 12.7305L7.78906 12L9.68945 11.2695C10.4157 10.9901 10.9901 10.4157 11.2695 9.68945L12 7.78906L12.7305 9.68945Z" stroke="#545861" stroke-width="1.5"/>
<path d="M19.25 3.75H4.75C4.19772 3.75 3.75 4.19772 3.75 4.75V19.25C3.75 19.8023 4.19772 20.25 4.75 20.25H19.25C19.8023 20.25 20.25 19.8023 20.25 19.25V4.75C20.25 4.19772 19.8023 3.75 19.25 3.75Z" stroke="#545861" stroke-width="1.5"/>
</svg>
